# xmcd
#
# Track frame offsets: 
#        150
#        13199
#        25909
#        38008
#        49480
#        62917
#        76872
#        90864
#        104943
#        120209
#        132911
#        145540
#        158010
#        171241
#        184790
#        198021
#        210928
#        224671
#        238637
#        252536
#        266835
#        278778
#        291071
#        304020
#
# Disc length: 4233 seconds
#
# Revision: 0
# Processed by: cddbd v1.5.2PL0 Copyright (c) Steve Scherf et al.
# Submitted via: ExactAudioCopyFreeDBPlugin 1.0
#
DISCID=56108718
DTITLE=Various Artist - St. Louis Women Vol. 2 (1934-1941)
DYEAR=1994
DGENRE=Blues
TTITLE0=Alice Moore - Black Evil Blues
TTITLE1=Alice Moore - Riverside Blues
TTITLE2=Alice Moore - Lonesome Woman Blues
TTITLE3=Alice Moore - Trouble Blues
TTITLE4=Alice Moore - S.O.S. Blues (Distress Blues)
TTITLE5=Alice Moore - Daddy Calling Mama
TTITLE6=Alice Moore - Just Sitting Here Wondering
TTITLE7=Alice Moore - Death Valley Blues
TTITLE8=Alice Moore - Blue Black and Evil Blues
TTITLE9=Alice Moore - Tomorrow Blues
TTITLE10=Alice Moore - Hand in Hand Women
TTITLE11=Alice Moore - Doggin' Man Blues
TTITLE12=Alice Moore - Midnight Creepers
TTITLE13=Alice Moore - Just a Good Girl Treated Wrong
TTITLE14=Alice Moore - New Blue Black and Evil Blues
TTITLE15=Alice Moore - Tired of Me Blues
TTITLE16=Alice Moore - Too Many Men
TTITLE17=Alice Moore - Don't Deny Me Baby
TTITLE18=Alice Moore - Push Cart Pusher
TTITLE19=Alice Moore - Unlucky Play Blues
TTITLE20=Streamline Mae - Streamline Blues
TTITLE21=Streamline Mae - School Boy Blues
TTITLE22=Streamline Mae - Romance in the Dark
TTITLE23=Streamline Mae - Blues Blues
EXTD=
EXTT0=
EXTT1=
EXTT2=
EXTT3=
EXTT4=
EXTT5=
EXTT6=
EXTT7=
EXTT8=
EXTT9=
EXTT10=
EXTT11=
EXTT12=
EXTT13=
EXTT14=
EXTT15=
EXTT16=
EXTT17=
EXTT18=
EXTT19=
EXTT20=
EXTT21=
EXTT22=
EXTT23=
PLAYORDER=
